<?xml version="1.0" standalone="no"?>
<!DOCTYPE svg PUBLIC "-//W3C//DTD SVG 20010904//EN"
 "http://www.w3.org/TR/2001/REC-SVG-20010904/DTD/svg10.dtd">
<svg version="1.0" xmlns="http://www.w3.org/2000/svg"
 width="512.000000pt" height="512.000000pt" viewBox="0 0 512.000000 512.000000"
 preserveAspectRatio="xMidYMid meet">

<g transform="translate(0.000000,512.000000) scale(0.100000,-0.100000)"
fill="#000000" stroke="none">
<path d="M2425 4771 c-240 -69 -402 -259 -422 -496 -5 -69 -4 -74 20 -99 l26
-26 191 0 c189 0 191 0 215 25 14 13 25 33 25 44 0 91 117 121 151 39 20 -50
3 -78 -76 -121 -159 -87 -235 -215 -235 -399 0 -87 11 -121 47 -137 33 -15
357 -15 386 1 34 18 46 40 47 83 0 37 4 42 51 70 58 35 147 121 189 185 47 70
72 146 77 237 7 107 -9 188 -58 290 -118 246 -388 375 -634 304z"/>
<path d="M2487 3464 c-69 -21 -131 -86 -152 -159 -27 -90 -3 -175 67 -242 136
-131 360 -49 393 144 17 106 -60 226 -166 257 -63 19 -79 19 -142 0z"/>
<path d="M1480 3080 c-360 -81 -664 -150 -675 -153 -11 -4 -125 -112 -253
-240 -200 -201 -232 -237 -232 -263 0 -37 28 -69 72 -83 109 -34 1719 -461
1740 -461 14 0 35 8 46 18 11 9 100 112 197 227 97 116 180 210 185 210 5 0
90 -97 190 -215 100 -118 189 -221 198 -227 9 -7 28 -13 42 -13 27 0 1676 439
1746 465 42 16 64 46 64 87 0 30 -452 484 -495 498 -16 5 -316 73 -665 150
-349 78 -644 143 -656 146 -18 5 -22 -2 -32 -53 -6 -32 -14 -67 -17 -79 -6
-20 15 -25 484 -129 270 -60 489 -110 487 -112 -2 -2 -305 -71 -675 -153
l-671 -149 -672 149 c-369 83 -673 151 -674 153 -2 2 677 154 934 210 38 8 43
12 37 31 -3 11 -11 47 -17 79 -6 31 -16 56 -22 56 -6 -1 -306 -68 -666 -149z"/>
<path d="M750 1455 l0 -624 23 -26 c19 -22 120 -52 861 -250 461 -124 840
-225 842 -225 2 0 4 376 4 836 l0 835 -89 -103 c-48 -57 -99 -113 -112 -125
-36 -32 -92 -53 -145 -53 -29 0 -295 66 -703 175 -361 97 -662 178 -668 180
-10 4 -13 -125 -13 -620z"/>
<path d="M3700 1899 c-426 -115 -682 -179 -713 -179 -91 0 -154 45 -277 199
l-65 81 -3 -831 c-1 -458 0 -834 2 -836 2 -2 381 97 842 221 744 200 842 228
862 251 l22 26 0 625 c0 343 -1 624 -2 623 -2 0 -302 -81 -668 -180z"/>
</g>
</svg>
